<!DOCTYPE svg PUBLIC "-//W3C//DTD SVG 1.1//EN" "http://www.w3.org/Graphics/SVG/1.1/DTD/svg11.dtd">

<!-- Uploaded to: SVG Repo, www.svgrepo.com, Transformed by: SVG Repo Mixer Tools -->
<svg fill="#FFFFFF" width="800px" height="800px" viewBox="0 0 128 128" xmlns="http://www.w3.org/2000/svg" xmlns:xlink="http://www.w3.org/1999/xlink" aria-hidden="true" role="img" class="iconify iconify--noto" preserveAspectRatio="xMidYMid meet" >

<g id="SVGRepo_bgCarrier" stroke-width="0"/>

<g id="SVGRepo_tracerCarrier" stroke-linecap="round" stroke-linejoin="round"/>

<g id="SVGRepo_iconCarrier">

<linearGradient id="IconifyId17ecdb2904d178eab8866" x1="63.938" x2="63.938" y1="13.424" y2="120.54" gradientTransform="matrix(-1 0 0 1 127.85 0)" gradientUnits="userSpaceOnUse">

<stop stop-color="#000000" offset=".128"/>

<stop stop-color="#000000" offset=".642"/>

</linearGradient>

<path d="M83.59 121.86c-3.74 0-7.04-.64-9.82-1.89c-3.49-1.58-7.59-3.88-11.56-6.1c-7.4-4.14-15.05-8.43-20.26-9.01c-1.85-.2-4.34-.27-7.21-.34c-8.53-.22-21.43-.54-25.32-5.43c-6.25-7.86-5.07-14.88-.7-25.08c5.54-12.92 5.66-21.28 5.39-34.95c-.16-8.18-.69-17.34-1.1-23.58c-.08-1.28.35-2.49 1.22-3.43c.88-.94 2.06-1.45 3.35-1.45l29.28.01c1.24 0 2.4.49 3.27 1.37s1.33 2.05 1.31 3.28c-.26 14.4-.11 39.53 3.78 46.12c5.22 8.84 13.79 17.72 18.74 20.89c2.34 1.5 4.45 3.55 6.49 5.55c.8.79 1.61 1.57 2.42 2.31c3.22 2.97 6.43 4.89 11.08 6.63c.42.16.82.31 1.22.47c2.03.79 3.94 1.54 6.3 1.74c.47.04 1.09.06 1.93.06c.75 0 1.6-.02 2.47-.03c.89-.02 1.8-.03 2.64-.03c1.24 0 2.1.04 2.62.12c1.67.25 3.14 1.03 4.44 1.72c1.33.7 2.47 1.31 3.68 1.31c.52 0 1.02-.12 1.46-.35c.11.03.4.13.91.5c.95.69 1.45 2.79.88 3.67l-.39.61c-.57.89-.95 1.9-1.12 3.02c-.22 1.43-.87 3.35-2.71 4.39c-.66.37-1.27.85-1.79 1.42c-.58.62-1.61 1.42-3.29 1.69c-.8.13-1.54.37-2.19.71c-.77.39-2 .91-3.51 1.11c-1.31.18-2.57.7-3.66 1.52c-.85.64-2.17 1.41-3.67 1.41c-.23 0-.47-.02-.7-.06c-1.04-.17-1.64-.37-1.96-.51c-1.07-.46-2.16-.7-3.24-.7c-.55 0-1.1.06-1.62.19c-2.15.52-5.44 1.12-9.06 1.12z" />

</g>

</svg>